<mxfile host="Electron" modified="2024-05-03T16:14:08.797Z" agent="Mozilla/5.0 (Windows NT 10.0; Win64; x64) AppleWebKit/537.36 (KHTML, like Gecko) draw.io/24.2.5 Chrome/120.0.6099.109 Electron/28.1.0 Safari/537.36" etag="NgE2kr978iY3eti4dZce" version="24.2.5" type="device">
  <diagram name="Page-1" id="3E4-J9eWufKUGDvzpdev">
    <mxGraphModel dx="1969" dy="1040" grid="1" gridSize="10" guides="1" tooltips="1" connect="1" arrows="1" fold="1" page="1" pageScale="1" pageWidth="827" pageHeight="1169" math="0" shadow="0">
      <root>
        <mxCell id="0" />
        <mxCell id="1" parent="0" />
        <mxCell id="mSHdeFPOnr8mZi3dIDjp-4" value="Move Shape SM" style="shape=umlFrame;whiteSpace=wrap;html=1;pointerEvents=0;recursiveResize=0;container=1;collapsible=0;width=160;" parent="1" vertex="1">
          <mxGeometry x="100" y="200" width="1490" height="460" as="geometry" />
        </mxCell>
        <mxCell id="Xp5h8li4eHAb7zd724My-14" value="&lt;font face=&quot;Helvetica&quot;&gt;Neutral&lt;/font&gt;" style="swimlane;fontStyle=4;align=center;verticalAlign=top;childLayout=stackLayout;horizontal=1;startSize=40;horizontalStack=0;resizeParent=1;resizeParentMax=0;resizeLast=0;collapsible=0;marginBottom=0;html=1;rounded=1;absoluteArcSize=1;arcSize=50;whiteSpace=wrap;" parent="mSHdeFPOnr8mZi3dIDjp-4" vertex="1">
          <mxGeometry x="180" y="80" width="950" height="290" as="geometry" />
        </mxCell>
        <mxCell id="Xp5h8li4eHAb7zd724My-15" value="" style="fillColor=none;strokeColor=none;container=1;collapsible=0;" parent="Xp5h8li4eHAb7zd724My-14" vertex="1">
          <mxGeometry y="40" width="950" height="250" as="geometry" />
        </mxCell>
        <mxCell id="Xp5h8li4eHAb7zd724My-16" value="Shape Selected" style="html=1;align=center;verticalAlign=middle;rounded=1;absoluteArcSize=1;arcSize=10;whiteSpace=wrap;" parent="Xp5h8li4eHAb7zd724My-15" vertex="1">
          <mxGeometry x="497.111724137931" y="60" width="102.88793103448275" height="150" as="geometry" />
        </mxCell>
        <mxCell id="mSHdeFPOnr8mZi3dIDjp-8" value="mousePressed [mouse in a shape] / select shape" style="text;strokeColor=none;align=center;fillColor=none;html=1;verticalAlign=middle;whiteSpace=wrap;rounded=0;" parent="Xp5h8li4eHAb7zd724My-15" vertex="1">
          <mxGeometry x="260.0038793103448" y="50.00333333333334" width="205.7758620689655" height="50" as="geometry" />
        </mxCell>
        <mxCell id="Xp5h8li4eHAb7zd724My-33" value="" style="endArrow=open;startArrow=none;endFill=0;startFill=0;endSize=8;html=1;verticalAlign=bottom;labelBackgroundColor=none;strokeWidth=1;rounded=0;" parent="Xp5h8li4eHAb7zd724My-15" edge="1">
          <mxGeometry width="160" relative="1" as="geometry">
            <mxPoint x="239.89189655172441" y="100" as="sourcePoint" />
            <mxPoint x="497.111724137931" y="100" as="targetPoint" />
          </mxGeometry>
        </mxCell>
        <mxCell id="Xp5h8li4eHAb7zd724My-24" value="No Shape Selected" style="html=1;align=center;verticalAlign=middle;rounded=1;absoluteArcSize=1;arcSize=10;whiteSpace=wrap;" parent="Xp5h8li4eHAb7zd724My-15" vertex="1">
          <mxGeometry x="134.00396551724137" y="60" width="102.88793103448275" height="150" as="geometry" />
        </mxCell>
        <mxCell id="Xp5h8li4eHAb7zd724My-35" value="" style="endArrow=open;startArrow=none;endFill=0;startFill=0;endSize=8;html=1;verticalAlign=bottom;labelBackgroundColor=none;strokeWidth=1;rounded=0;exitX=0.01;exitY=0.831;exitDx=0;exitDy=0;entryX=1.005;entryY=0.844;entryDx=0;entryDy=0;entryPerimeter=0;exitPerimeter=0;" parent="Xp5h8li4eHAb7zd724My-15" edge="1">
          <mxGeometry width="160" relative="1" as="geometry">
            <mxPoint x="497.1161637931034" y="166.6666666666668" as="sourcePoint" />
            <mxPoint x="239.38189655172408" y="168.6166666666667" as="targetPoint" />
          </mxGeometry>
        </mxCell>
        <mxCell id="Xp5h8li4eHAb7zd724My-5" value="mousePressed [mouse not in a shape] / deselected selected shape" style="text;strokeColor=none;align=center;fillColor=none;html=1;verticalAlign=middle;whiteSpace=wrap;rounded=0;" parent="Xp5h8li4eHAb7zd724My-15" vertex="1">
          <mxGeometry x="244.2818965517241" y="170.00333333333333" width="257.21982758620686" height="50" as="geometry" />
        </mxCell>
        <mxCell id="Xp5h8li4eHAb7zd724My-43" value="" style="endArrow=open;startArrow=none;endFill=0;startFill=0;endSize=8;html=1;verticalAlign=bottom;labelBackgroundColor=none;strokeWidth=1;rounded=0;exitX=0.75;exitY=0;exitDx=0;exitDy=0;entryX=0.25;entryY=0;entryDx=0;entryDy=0;" parent="Xp5h8li4eHAb7zd724My-15" source="Xp5h8li4eHAb7zd724My-16" target="Xp5h8li4eHAb7zd724My-16" edge="1">
          <mxGeometry width="160" relative="1" as="geometry">
            <mxPoint x="501.5786637931037" y="50" as="sourcePoint" />
            <mxPoint x="758.7984913793102" y="50" as="targetPoint" />
            <Array as="points">
              <mxPoint x="574" y="20" />
              <mxPoint x="523" y="20" />
            </Array>
          </mxGeometry>
        </mxCell>
        <mxCell id="Xp5h8li4eHAb7zd724My-44" value="mousePressed [mouse in an other shape] / select shape" style="text;strokeColor=none;align=center;fillColor=none;html=1;verticalAlign=middle;whiteSpace=wrap;rounded=0;" parent="Xp5h8li4eHAb7zd724My-15" vertex="1">
          <mxGeometry x="580.0003663793103" y="10.00333333333333" width="205.7758620689655" height="50" as="geometry" />
        </mxCell>
        <mxCell id="Xp5h8li4eHAb7zd724My-47" value="mousePressed [mouse in the selected shape]" style="text;strokeColor=none;align=center;fillColor=none;html=1;verticalAlign=middle;whiteSpace=wrap;rounded=0;" parent="Xp5h8li4eHAb7zd724My-15" vertex="1">
          <mxGeometry x="650.0004364224138" y="170" width="192.91487068965517" height="30" as="geometry" />
        </mxCell>
        <mxCell id="Xp5h8li4eHAb7zd724My-78" value="" style="endArrow=open;html=1;rounded=0;align=center;verticalAlign=top;endFill=0;labelBackgroundColor=none;endSize=6;entryX=0;entryY=0.25;entryDx=0;entryDy=0;exitX=1;exitY=0.5;exitDx=0;exitDy=0;" parent="Xp5h8li4eHAb7zd724My-15" source="Xp5h8li4eHAb7zd724My-85" target="Xp5h8li4eHAb7zd724My-24" edge="1">
          <mxGeometry relative="1" as="geometry">
            <mxPoint x="160" y="139.5" as="targetPoint" />
            <mxPoint x="56.09500000000003" y="98.32999999999993" as="sourcePoint" />
          </mxGeometry>
        </mxCell>
        <mxCell id="Xp5h8li4eHAb7zd724My-81" value="H" style="ellipse;html=1;" parent="Xp5h8li4eHAb7zd724My-15" vertex="1">
          <mxGeometry x="830" y="30" width="30" height="30" as="geometry" />
        </mxCell>
        <mxCell id="Xp5h8li4eHAb7zd724My-85" value="" style="ellipse;fillColor=strokeColor;html=1;" parent="Xp5h8li4eHAb7zd724My-15" vertex="1">
          <mxGeometry x="30" y="83.33000000000004" width="30" height="30" as="geometry" />
        </mxCell>
        <mxCell id="Xp5h8li4eHAb7zd724My-22" value="" style="endArrow=open;html=1;rounded=0;align=center;verticalAlign=top;endFill=0;labelBackgroundColor=none;endSize=6;entryX=0;entryY=0.25;entryDx=0;entryDy=0;" parent="mSHdeFPOnr8mZi3dIDjp-4" source="Xp5h8li4eHAb7zd724My-84" target="Xp5h8li4eHAb7zd724My-14" edge="1">
          <mxGeometry relative="1" as="geometry">
            <mxPoint x="170" y="-15" as="targetPoint" />
            <mxPoint x="60" y="145" as="sourcePoint" />
          </mxGeometry>
        </mxCell>
        <mxCell id="Xp5h8li4eHAb7zd724My-45" value="" style="shape=sumEllipse;perimeter=ellipsePerimeter;html=1;backgroundOutline=1;" parent="mSHdeFPOnr8mZi3dIDjp-4" vertex="1">
          <mxGeometry x="1110.003125" y="265" width="36.09375" height="30" as="geometry" />
        </mxCell>
        <mxCell id="Xp5h8li4eHAb7zd724My-46" value="" style="endArrow=open;startArrow=none;endFill=0;startFill=0;endSize=8;html=1;verticalAlign=bottom;labelBackgroundColor=none;strokeWidth=1;rounded=0;entryX=0;entryY=0.5;entryDx=0;entryDy=0;" parent="mSHdeFPOnr8mZi3dIDjp-4" target="Xp5h8li4eHAb7zd724My-45" edge="1">
          <mxGeometry width="160" relative="1" as="geometry">
            <mxPoint x="780" y="280" as="sourcePoint" />
            <mxPoint x="951.6594827586207" y="240" as="targetPoint" />
          </mxGeometry>
        </mxCell>
        <mxCell id="Xp5h8li4eHAb7zd724My-79" value="" style="endArrow=open;html=1;rounded=0;align=center;verticalAlign=top;endFill=0;labelBackgroundColor=none;endSize=6;exitX=1;exitY=0.5;exitDx=0;exitDy=0;" parent="mSHdeFPOnr8mZi3dIDjp-4" source="Xp5h8li4eHAb7zd724My-45" target="Xp5h8li4eHAb7zd724My-86" edge="1">
          <mxGeometry relative="1" as="geometry">
            <mxPoint x="1258" y="279.5" as="targetPoint" />
            <mxPoint x="1180" y="279.5" as="sourcePoint" />
          </mxGeometry>
        </mxCell>
        <mxCell id="Xp5h8li4eHAb7zd724My-80" value="Move" style="html=1;align=center;verticalAlign=top;rounded=1;absoluteArcSize=1;arcSize=10;dashed=0;whiteSpace=wrap;" parent="mSHdeFPOnr8mZi3dIDjp-4" vertex="1">
          <mxGeometry x="1300" y="260" width="140" height="40" as="geometry" />
        </mxCell>
        <mxCell id="Xp5h8li4eHAb7zd724My-84" value="" style="ellipse;fillColor=strokeColor;html=1;" parent="mSHdeFPOnr8mZi3dIDjp-4" vertex="1">
          <mxGeometry x="40" y="130" width="30" height="30" as="geometry" />
        </mxCell>
        <mxCell id="Xp5h8li4eHAb7zd724My-86" value="" style="ellipse;" parent="mSHdeFPOnr8mZi3dIDjp-4" vertex="1">
          <mxGeometry x="1285" y="265" width="30" height="30" as="geometry" />
        </mxCell>
        <mxCell id="Xp5h8li4eHAb7zd724My-87" value="" style="endArrow=open;startArrow=none;endFill=0;startFill=0;endSize=8;html=1;verticalAlign=bottom;labelBackgroundColor=none;strokeWidth=1;rounded=0;exitX=0.5;exitY=0;exitDx=0;exitDy=0;entryX=1;entryY=0.319;entryDx=0;entryDy=0;entryPerimeter=0;" parent="mSHdeFPOnr8mZi3dIDjp-4" source="Xp5h8li4eHAb7zd724My-80" target="Xp5h8li4eHAb7zd724My-15" edge="1">
          <mxGeometry width="160" relative="1" as="geometry">
            <mxPoint x="1417.7361637931035" y="199.99666666666678" as="sourcePoint" />
            <mxPoint x="1160.0018965517243" y="201.94666666666672" as="targetPoint" />
            <Array as="points">
              <mxPoint x="1370" y="200" />
            </Array>
          </mxGeometry>
        </mxCell>
        <mxCell id="Xp5h8li4eHAb7zd724My-88" value="mouseDragged / move shape" style="text;strokeColor=none;align=center;fillColor=none;html=1;verticalAlign=middle;whiteSpace=wrap;rounded=0;" parent="mSHdeFPOnr8mZi3dIDjp-4" vertex="1">
          <mxGeometry x="1320" y="340" width="110" height="30" as="geometry" />
        </mxCell>
        <mxCell id="Xp5h8li4eHAb7zd724My-89" value="" style="endArrow=open;startArrow=none;endFill=0;startFill=0;endSize=8;html=1;verticalAlign=bottom;labelBackgroundColor=none;strokeWidth=1;rounded=0;exitX=0.25;exitY=1;exitDx=0;exitDy=0;entryX=0.75;entryY=1;entryDx=0;entryDy=0;" parent="mSHdeFPOnr8mZi3dIDjp-4" source="Xp5h8li4eHAb7zd724My-80" target="Xp5h8li4eHAb7zd724My-80" edge="1">
          <mxGeometry width="160" relative="1" as="geometry">
            <mxPoint x="1490" y="428" as="sourcePoint" />
            <mxPoint x="1250" y="371" as="targetPoint" />
            <Array as="points">
              <mxPoint x="1335" y="330" />
              <mxPoint x="1405" y="330" />
            </Array>
          </mxGeometry>
        </mxCell>
        <mxCell id="Xp5h8li4eHAb7zd724My-90" value="mouseReleased" style="text;strokeColor=none;align=center;fillColor=none;html=1;verticalAlign=middle;whiteSpace=wrap;rounded=0;" parent="mSHdeFPOnr8mZi3dIDjp-4" vertex="1">
          <mxGeometry x="1210" y="170" width="110" height="30" as="geometry" />
        </mxCell>
        <mxCell id="Xp5h8li4eHAb7zd724My-104" value="/ set move state" style="text;strokeColor=none;align=center;fillColor=none;html=1;verticalAlign=middle;whiteSpace=wrap;rounded=0;" parent="mSHdeFPOnr8mZi3dIDjp-4" vertex="1">
          <mxGeometry x="1122.0804364224136" y="280" width="192.91487068965517" height="30" as="geometry" />
        </mxCell>
      </root>
    </mxGraphModel>
  </diagram>
</mxfile>
